<?xml version="1.0" encoding="UTF-8"?>
<svg xmlns="http://www.w3.org/2000/svg" xmlns:xlink="http://www.w3.org/1999/xlink" width="64pt" height="64pt" viewBox="0 0 64 64" version="1.1">
<g id="surface1">
<path style=" stroke:none;fill-rule:nonzero;fill:rgb(68.627451%,3.137255%,22.745098%);fill-opacity:1;" d="M 24.589844 13.738281 C 24.429688 14.179688 21.542969 19.5625 15.929688 29.882812 C 17.125 30.007812 18.269531 30.289062 19.367188 30.722656 C 23.445312 28.183594 27.230469 25.289062 30.726562 22.039062 C 34.222656 18.800781 36.753906 15.609375 38.320312 12.472656 C 38.351562 12.160156 38.5 12.003906 38.769531 12.003906 C 39.039062 12.003906 39.335938 12.082031 39.667969 12.238281 C 39.996094 12.394531 40.160156 12.582031 40.160156 12.796875 C 38.933594 15.808594 36.488281 18.96875 32.820312 22.277344 C 29.148438 25.589844 25.035156 28.597656 20.488281 31.292969 C 23.878906 33.109375 25.574219 36.324219 25.574219 40.9375 C 25.574219 42.28125 25.402344 43.523438 25.058594 44.65625 C 24.714844 45.785156 24.386719 46.570312 24.074219 47.011719 L 23.546875 47.660156 C 23.300781 47.660156 23.175781 47.503906 23.175781 47.191406 L 23.457031 46.304688 C 23.898438 44.953125 24.117188 43.664062 24.117188 42.441406 C 24.117188 37.675781 22.328125 34.289062 18.75 32.28125 C 17.027344 33.21875 15.144531 34.160156 13.105469 35.101562 C 10.535156 39.777344 8.574219 43.257812 7.222656 45.542969 C 7.007812 46.082031 6.714844 46.429688 6.351562 46.585938 C 5.992188 46.742188 5.625 46.820312 5.253906 46.820312 C 4.871094 46.820312 4.679688 46.757812 4.679688 46.628906 L 10.371094 36.1875 C 8.304688 36.9375 6.578125 37.308594 5.195312 37.308594 C 3.410156 37.308594 2.519531 36.621094 2.519531 35.25 C 2.519531 33.867188 3.703125 32.601562 6.070312 31.449219 C 8.4375 30.308594 11.046875 29.738281 13.902344 29.738281 L 22.234375 14.445312 C 22.324219 14.199219 22.617188 13.984375 23.109375 13.808594 C 23.59375 13.636719 23.960938 13.550781 24.207031 13.550781 C 24.460938 13.550781 24.589844 13.613281 24.589844 13.738281 M 12.488281 30.777344 C 10.292969 30.777344 8.367188 31.183594 6.710938 32 C 5.042969 32.8125 4.210938 33.785156 4.210938 34.910156 C 4.210938 35.882812 4.832031 36.367188 6.070312 36.367188 C 7.308594 36.367188 8.933594 35.960938 10.945312 35.148438 L 13.296875 30.824219 C 13.109375 30.792969 12.839844 30.777344 12.488281 30.777344 M 15.3125 31.058594 C 14.46875 32.625 13.953125 33.582031 13.765625 33.925781 C 14.738281 33.457031 16.035156 32.734375 17.664062 31.765625 C 16.917969 31.449219 16.132812 31.214844 15.3125 31.058594 Z M 49.238281 24.28125 C 48.011719 24.28125 47.398438 23.746094 47.398438 22.679688 C 47.398438 21.050781 48.3125 19.515625 50.132812 18.074219 C 51.957031 16.625 54.121094 15.449219 56.628906 14.546875 C 56.40625 13.636719 55.839844 12.9375 54.925781 12.453125 C 54.023438 11.964844 52.902344 11.722656 51.566406 11.722656 C 50.238281 11.722656 48.859375 11.972656 47.433594 12.472656 C 46 12.972656 44.648438 13.6875 43.378906 14.613281 C 42.109375 15.539062 41.074219 16.761719 40.273438 18.277344 C 39.476562 19.800781 39.074219 21.472656 39.074219 23.296875 C 39.074219 23.921875 39.546875 25.757812 40.488281 28.796875 C 41.429688 31.84375 41.898438 34.367188 41.898438 36.367188 C 41.898438 36.875 41.835938 37.601562 41.707031 38.542969 C 42.902344 38.414062 43.765625 38.351562 44.296875 38.351562 C 47.34375 38.351562 48.867188 39.148438 48.867188 40.75 C 48.867188 41.316406 48.691406 41.785156 48.339844 42.160156 C 47.996094 42.535156 47.417969 42.972656 46.605469 43.480469 C 46.351562 43.324219 46.222656 43.183594 46.222656 43.054688 C 46.222656 42.929688 46.285156 42.816406 46.414062 42.71875 C 47.355469 42.191406 47.824219 41.660156 47.824219 41.128906 C 47.824219 40.0625 46.585938 39.527344 44.105469 39.527344 C 43.203125 39.527344 42.324219 39.589844 41.472656 39.71875 C 40.941406 41.71875 39.949219 43.589844 38.492188 45.332031 C 37.03125 47.078125 35.40625 48.488281 33.621094 49.566406 C 31.828125 50.648438 30.03125 51.488281 28.230469 52.085938 C 26.425781 52.683594 24.835938 52.980469 23.460938 52.980469 C 21.324219 52.980469 20.257812 52.355469 20.257812 51.097656 C 20.257812 49.34375 21.355469 47.570312 23.550781 45.777344 C 25.746094 43.992188 28.355469 42.496094 31.378906 41.285156 C 34.414062 40.082031 37.382812 39.230469 40.296875 38.722656 C 40.425781 37.847656 40.488281 37.140625 40.488281 36.605469 C 40.488281 35.257812 39.996094 33.148438 39.007812 30.273438 C 38.015625 27.40625 37.519531 24.9375 37.519531 22.871094 C 37.519531 20.800781 38.335938 18.738281 39.972656 16.6875 C 41.601562 14.632812 43.535156 13.054688 45.773438 11.957031 C 48.023438 10.859375 50.152344 10.3125 52.160156 10.3125 C 55.328125 10.3125 57.066406 11.644531 57.378906 14.3125 C 59.136719 13.742188 60.328125 13.460938 60.953125 13.460938 C 61.582031 13.460938 61.917969 13.480469 61.960938 13.527344 C 62.015625 13.578125 62.039062 13.761719 62.039062 14.074219 C 62.039062 14.390625 61.898438 14.589844 61.617188 14.679688 C 60.203125 14.746094 58.808594 14.953125 57.425781 15.296875 C 57.367188 17.835938 56.410156 19.96875 54.558594 21.691406 C 52.707031 23.417969 50.933594 24.28125 49.238281 24.28125 M 22.09375 49.921875 C 22.09375 50.835938 23 51.289062 24.816406 51.289062 C 27.363281 51.289062 30.203125 50.378906 33.339844 48.554688 C 34.871094 47.683594 36.257812 46.484375 37.496094 44.960938 C 38.734375 43.4375 39.589844 41.75 40.0625 39.898438 C 37.394531 40.335938 34.722656 41.042969 32.042969 42.015625 C 29.359375 42.992188 27.03125 44.195312 25.050781 45.621094 C 23.078125 47.046875 22.09375 48.480469 22.09375 49.921875 M 48.910156 22.398438 C 48.910156 22.996094 49.226562 23.296875 49.851562 23.296875 C 51.039062 23.296875 52.472656 22.484375 54.15625 20.863281 C 55.835938 19.25 56.691406 17.472656 56.71875 15.53125 C 54.523438 16.21875 52.671875 17.175781 51.164062 18.398438 C 49.664062 19.625 48.910156 20.957031 48.910156 22.398438 Z M 48.910156 22.398438 "/>
</g>
</svg>
